<svg width="512" height="512" viewBox="0 0 512 512" fill="none" xmlns="http://www.w3.org/2000/svg">
<path d="M352 384C369.673 384 384.393 369.456 380.021 352.332C378.517 346.444 376.593 340.657 374.257 335.017C367.824 319.487 358.396 305.376 346.51 293.49C334.624 281.604 320.513 272.176 304.983 265.743C289.454 259.311 272.809 256 256 256C239.191 256 222.546 259.311 207.017 265.743C191.487 272.176 177.376 281.604 165.49 293.49C153.604 305.376 144.176 319.487 137.743 335.017C135.407 340.657 133.483 346.444 131.979 352.332C127.607 369.456 142.327 384 160 384H352Z" fill="white"/>
<path d="M320 184C320 219.346 291.346 248 256 248C220.654 248 192 219.346 192 184C192 148.654 220.654 120 256 120C291.346 120 320 148.654 320 184Z" fill="white"/>
</svg>
