<svg width="512" height="512" viewBox="0 0 512 512" fill="none" xmlns="http://www.w3.org/2000/svg">
<circle cx="256" cy="256" r="256" fill="#5B5B5B"/>
<path d="M242.733 132.273V225.364H221.642L188.006 176.455H187.46V225.364H162.188V132.273H183.642L216.733 181H217.46V132.273H242.733Z" fill="white"/>
<path d="M344.869 178.818C344.869 189.182 342.854 197.924 338.824 205.045C334.794 212.136 329.354 217.515 322.506 221.182C315.657 224.818 308.021 226.636 299.597 226.636C291.112 226.636 283.445 224.803 276.597 221.136C269.778 217.439 264.354 212.045 260.324 204.955C256.324 197.833 254.324 189.121 254.324 178.818C254.324 168.455 256.324 159.727 260.324 152.636C264.354 145.515 269.778 140.136 276.597 136.5C283.445 132.833 291.112 131 299.597 131C308.021 131 315.657 132.833 322.506 136.5C329.354 140.136 334.794 145.515 338.824 152.636C342.854 159.727 344.869 168.455 344.869 178.818ZM318.869 178.818C318.869 173.242 318.127 168.545 316.642 164.727C315.188 160.879 313.021 157.97 310.142 156C307.294 154 303.778 153 299.597 153C295.415 153 291.884 154 289.006 156C286.157 157.97 283.991 160.879 282.506 164.727C281.051 168.545 280.324 173.242 280.324 178.818C280.324 184.394 281.051 189.106 282.506 192.955C283.991 196.773 286.157 199.682 289.006 201.682C291.884 203.652 295.415 204.636 299.597 204.636C303.778 204.636 307.294 203.652 310.142 201.682C313.021 199.682 315.188 196.773 316.642 192.955C318.127 189.106 318.869 184.394 318.869 178.818Z" fill="white"/>
<path d="M143.091 287.273H168.364V346.909C168.364 354 166.667 360.136 163.273 365.318C159.909 370.47 155.212 374.455 149.182 377.273C143.152 380.061 136.152 381.455 128.182 381.455C120.152 381.455 113.121 380.061 107.091 377.273C101.061 374.455 96.3636 370.47 93 365.318C89.6667 360.136 88 354 88 346.909V287.273H113.273V344.727C113.273 347.606 113.909 350.182 115.182 352.455C116.455 354.697 118.212 356.455 120.455 357.727C122.727 359 125.303 359.636 128.182 359.636C131.091 359.636 133.667 359 135.909 357.727C138.152 356.455 139.909 354.697 141.182 352.455C142.455 350.182 143.091 347.606 143.091 344.727V287.273Z" fill="white"/>
<path d="M230.557 316.364C230.314 313.333 229.178 310.97 227.148 309.273C225.148 307.576 222.102 306.727 218.011 306.727C215.405 306.727 213.269 307.045 211.602 307.682C209.966 308.288 208.754 309.121 207.966 310.182C207.178 311.242 206.769 312.455 206.739 313.818C206.678 314.939 206.875 315.955 207.33 316.864C207.814 317.742 208.572 318.545 209.602 319.273C210.633 319.97 211.951 320.606 213.557 321.182C215.163 321.758 217.072 322.273 219.284 322.727L226.92 324.364C232.072 325.455 236.481 326.894 240.148 328.682C243.814 330.47 246.814 332.576 249.148 335C251.481 337.394 253.193 340.091 254.284 343.091C255.405 346.091 255.981 349.364 256.011 352.909C255.981 359.03 254.451 364.212 251.42 368.455C248.39 372.697 244.057 375.924 238.42 378.136C232.814 380.348 226.072 381.455 218.193 381.455C210.102 381.455 203.042 380.258 197.011 377.864C191.011 375.47 186.345 371.788 183.011 366.818C179.708 361.818 178.042 355.424 178.011 347.636H202.011C202.163 350.485 202.875 352.879 204.148 354.818C205.42 356.758 207.208 358.227 209.511 359.227C211.845 360.227 214.617 360.727 217.83 360.727C220.527 360.727 222.784 360.394 224.602 359.727C226.42 359.061 227.799 358.136 228.739 356.955C229.678 355.773 230.163 354.424 230.193 352.909C230.163 351.485 229.693 350.242 228.784 349.182C227.905 348.091 226.451 347.121 224.42 346.273C222.39 345.394 219.648 344.576 216.193 343.818L206.92 341.818C198.678 340.03 192.178 337.045 187.42 332.864C182.693 328.652 180.345 322.909 180.375 315.636C180.345 309.727 181.92 304.561 185.102 300.136C188.314 295.682 192.754 292.212 198.42 289.727C204.117 287.242 210.648 286 218.011 286C225.527 286 232.027 287.258 237.511 289.773C242.996 292.288 247.223 295.833 250.193 300.409C253.193 304.955 254.708 310.273 254.739 316.364H230.557Z" fill="white"/>
<path d="M265.625 380.364V287.273H332.716V307.636H290.898V323.636H329.261V344H290.898V360H332.534V380.364H265.625Z" fill="white"/>
<path d="M345.25 380.364V287.273H385.432C392.341 287.273 398.386 288.53 403.568 291.045C408.75 293.561 412.78 297.182 415.659 301.909C418.538 306.636 419.977 312.303 419.977 318.909C419.977 325.576 418.492 331.197 415.523 335.773C412.583 340.348 408.447 343.803 403.114 346.136C397.811 348.47 391.614 349.636 384.523 349.636H360.523V330H379.432C382.402 330 384.932 329.636 387.023 328.909C389.144 328.152 390.765 326.955 391.886 325.318C393.038 323.682 393.614 321.545 393.614 318.909C393.614 316.242 393.038 314.076 391.886 312.409C390.765 310.712 389.144 309.47 387.023 308.682C384.932 307.864 382.402 307.455 379.432 307.455H370.523V380.364H345.25ZM399.795 337.636L423.068 380.364H395.614L372.886 337.636H399.795Z" fill="white"/>
</svg>
