<svg width="460" height="390" viewBox="0 0 460 390" fill="none" xmlns="http://www.w3.org/2000/svg">
<path d="M46 164H182V202H46V352H204V390H0V0H194V38H46V164Z" fill="white"/>
<path d="M330 146C358 170 386 190 414 206C444.667 223.333 460 248.667 460 282C460 315.333 450 342 430 362C411.333 380.667 385.333 390 352 390C320 390 295.333 381.333 278 364C256.667 342.667 246 317.333 246 288V268H292V286C292 307.333 297.333 323.333 308 334C318.667 344.667 332 350 348 350C369.333 350 385.333 344.667 396 334C408 322 414 306.667 414 288C414 268 404.667 252 386 240C352.667 218.667 321.333 196 292 172C270.667 154.667 259.333 131.333 258 102C256.667 72.6667 266.667 48 288 28C308 9.33333 330 0 354 0C383.333 0 406 8 422 24C442 44 451.333 72 450 108H404C406.667 85.3333 401.333 67.3333 388 54C378.667 44.6667 367.333 40 354 40C340.667 40 329.333 44.6667 320 54C308 66 302 80 302 96C302 113.333 311.333 130 330 146Z" fill="white"/>
</svg>
