<svg width="512" height="506" viewBox="0 0 512 506" fill="none" xmlns="http://www.w3.org/2000/svg">
<path d="M46.504 340V160.8H161.448V186.144H73.64V240.928H147.368V264.736H73.64V340H46.504ZM185.668 340L239.172 160.8H271.428L324.932 340H295.492L283.46 296.992H227.14L215.108 340H185.668ZM254.532 199.2L233.284 275.232H277.316L256.068 199.2H254.532ZM339.936 340L393.44 250.4L339.424 160.8H370.912L409.568 225.312L447.2 160.8H477.664L424.16 249.632L478.176 340H447.2L408.032 274.72L370.912 340H339.936Z" fill="url(#paint0_linear_345_4)"/>
<defs>
<linearGradient id="paint0_linear_345_4" x1="486" y1="253" x2="25" y2="253" gradientUnits="userSpaceOnUse">
<stop stop-color="#819BC7"/>
<stop offset="1" stop-color="#C59FC3"/>
</linearGradient>
</defs>
</svg>
