<svg width="559" height="512" viewBox="0 0 559 512" fill="none" xmlns="http://www.w3.org/2000/svg">
<mask id="path-1-inside-1_6_5" fill="white">
<path d="M58.6473 304.873L279.273 512L506.88 297.658L558.778 151.04L506.88 32.1164L418.909 0.232727L333.265 32.1164L279.273 92.6255L226.676 32.1164L140.8 0L51.2 32.1164L0 151.04L58.6473 304.873Z"/>
</mask>
<path d="M279.273 512L-34.2065 845.908L279.756 1140.66L593.265 845.425L279.273 512ZM58.6473 304.873L-369.307 468.026L-331.732 566.586L-254.832 638.781L58.6473 304.873ZM0 151.04L-420.67 -30.0703L-494.141 140.584L-427.954 314.194L0 151.04ZM51.2 32.1164L-103.339 -399.024L-290.745 -331.849L-369.47 -148.994L51.2 32.1164ZM140.8 0L301.232 -428.982L144.142 -487.731L-13.7385 -431.14L140.8 0ZM226.676 32.1164L572.343 -268.348L496.044 -356.126L387.109 -396.866L226.676 32.1164ZM279.273 92.6255L-66.3938 393.089L274.77 785.579L621.006 397.556L279.273 92.6255ZM333.265 32.1164L173.474 -397.105L67.1022 -357.504L-8.46734 -272.814L333.265 32.1164ZM418.909 0.232727L574.97 -430.359L416.792 -487.688L259.118 -428.988L418.909 0.232727ZM506.88 32.1164L926.65 -151.071L847.944 -331.424L662.941 -398.475L506.88 32.1164ZM558.778 151.04L990.528 303.866L1050.83 133.496L978.548 -32.1471L558.778 151.04ZM506.88 297.658L820.873 631.084L901.62 555.043L938.63 450.484L506.88 297.658ZM592.752 178.092L372.127 -29.0355L-254.832 638.781L-34.2065 845.908L592.752 178.092ZM486.602 141.719L427.954 -12.1135L-427.954 314.194L-369.307 468.026L486.602 141.719ZM420.67 332.15L471.87 213.227L-369.47 -148.994L-420.67 -30.0703L420.67 332.15ZM205.739 463.257L295.339 431.14L-13.7385 -431.14L-103.339 -399.024L205.739 463.257ZM-19.6323 428.982L66.2441 461.098L387.109 -396.866L301.232 -428.982L-19.6323 428.982ZM-118.99 332.58L-66.3938 393.089L624.939 -207.839L572.343 -268.348L-118.99 332.58ZM621.006 397.556L674.998 337.047L-8.46734 -272.814L-62.46 -212.305L621.006 397.556ZM493.057 461.337L578.701 429.454L259.118 -428.988L173.474 -397.105L493.057 461.337ZM262.848 430.824L350.819 462.708L662.941 -398.475L574.97 -430.359L262.848 430.824ZM87.1105 215.303L139.009 334.227L978.548 -32.1471L926.65 -151.071L87.1105 215.303ZM127.028 -1.78591L75.1298 144.832L938.63 450.484L990.528 303.866L127.028 -1.78591ZM192.887 -35.7673L-34.72 178.575L593.265 845.425L820.873 631.084L192.887 -35.7673Z" fill="#FD7F7F" mask="url(#path-1-inside-1_6_5)"/>
</svg>
