<svg width="512" height="512" viewBox="0 0 512 512" fill="none" xmlns="http://www.w3.org/2000/svg">
<path fill-rule="evenodd" clip-rule="evenodd" d="M330 144C330 135.163 322.837 128 314 128H90C81.1634 128 74 135.163 74 144V368C74 376.837 81.1634 384 90 384H314C322.837 384 330 376.837 330 368V336C330 327.163 322.837 320 314 320H154C145.163 320 138 312.837 138 304V208C138 199.163 145.163 192 154 192H314C322.837 192 330 184.837 330 176V144Z" fill="url(#paint0_linear_50_2)"/>
<path d="M182 244C175.373 244 170 249.373 170 256C170 262.627 175.373 268 182 268V244ZM446.485 264.485C451.172 259.799 451.172 252.201 446.485 247.515L370.118 171.147C365.431 166.461 357.833 166.461 353.147 171.147C348.461 175.833 348.461 183.431 353.147 188.118L421.029 256L353.147 323.882C348.461 328.569 348.461 336.167 353.147 340.853C357.833 345.539 365.431 345.539 370.118 340.853L446.485 264.485ZM182 268L438 268V244L182 244V268Z" fill="url(#paint1_linear_50_2)"/>
<defs>
<linearGradient id="paint0_linear_50_2" x1="74" y1="256" x2="330" y2="256" gradientUnits="userSpaceOnUse">
<stop stop-color="#FF0000"/>
<stop offset="1" stop-color="#FF0000" stop-opacity="0"/>
</linearGradient>
<linearGradient id="paint1_linear_50_2" x1="182" y1="256.5" x2="438" y2="256.5" gradientUnits="userSpaceOnUse">
<stop stop-color="#FF0000" stop-opacity="0"/>
<stop offset="1" stop-color="#FF0000"/>
</linearGradient>
</defs>
</svg>
