<svg width="512" height="512" viewBox="0 0 512 512" fill="none" xmlns="http://www.w3.org/2000/svg">
<path fill-rule="evenodd" clip-rule="evenodd" d="M346.353 220.965V316.588L379.882 343.353L384 365.529H346.353H346.353H165.647L128 365.529L132.118 343.353L165.647 316.588L165.647 316.589V220.965C165.647 167.737 206.1 124.588 256 124.588C305.901 124.588 346.353 167.737 346.353 220.965Z" fill="white"/>
<path d="M346.353 316.588H341.353L343.234 320.496L346.353 316.588ZM379.882 343.353L384.798 342.44L383.002 339.445L379.882 343.353ZM384 365.529V370.529L388.916 364.617L384 365.529ZM165.647 365.529L165.647 360.529L165.647 360.529L165.647 365.529ZM128 365.529L123.084 364.617L128 370.529L128 365.529ZM132.118 343.353L128.998 339.445L127.202 342.44L132.118 343.353ZM165.647 316.588L170.498 315.375L162.528 312.68L165.647 316.588ZM165.647 316.589L160.797 317.802L170.647 316.589H165.647ZM351.353 316.588V220.965H341.353V316.588H351.353ZM383.002 339.445L349.472 312.681L343.234 320.496L376.763 347.261L383.002 339.445ZM388.916 364.617L384.798 342.44L374.966 344.266L379.084 366.442L388.916 364.617ZM346.353 370.529H384V360.529H346.353V370.529ZM346.353 370.529H346.353V360.529H346.353V370.529ZM165.647 370.529H346.353V360.529H165.647V370.529ZM128 370.529L165.647 370.529L165.647 360.529L128 360.529L128 370.529ZM127.202 342.44L123.084 364.617L132.916 366.442L137.034 344.266L127.202 342.44ZM162.528 312.68L128.998 339.445L135.237 347.261L168.766 320.496L162.528 312.68ZM170.498 315.376L170.498 315.375L160.796 317.801L160.797 317.802L170.498 315.376ZM160.647 220.965V316.589H170.647V220.965H160.647ZM256 119.588C203.039 119.588 160.647 165.285 160.647 220.965H170.647C170.647 170.19 209.16 129.588 256 129.588V119.588ZM351.353 220.965C351.353 165.285 308.961 119.588 256 119.588V129.588C302.84 129.588 341.353 170.19 341.353 220.965H351.353Z" fill="black"/>
<path d="M256 124L229.462 124C231.807 111.477 242.797 102 256 102C269.203 102 280.193 111.477 282.538 124L256 124L256 124Z" fill="white" stroke="black" stroke-width="10"/>
<path d="M295.868 370.529C293.407 390.359 276.496 405.706 256 405.706C235.504 405.706 218.593 390.359 216.132 370.529L256 370.53H256L295.868 370.529Z" fill="white" stroke="black" stroke-width="10"/>
<path d="M165.647 316.588H346.81" stroke="black" stroke-width="10"/>
</svg>
