<svg width="513" height="453" viewBox="0 0 513 453" fill="none" xmlns="http://www.w3.org/2000/svg">
<path fill-rule="evenodd" clip-rule="evenodd" d="M268.936 444.37C381.013 379.09 448.853 311.506 483.438 248.018C518.254 184.018 519.534 123.602 496.597 77.2658C473.89 31.4418 428.833 2.76982 378.811 0.209818C338.165 -2.00725 295.931 13.3171 260.206 47.5513C258.805 48.8937 257.414 50.2652 256.034 51.6658C254.651 50.2635 253.257 48.8905 251.854 47.5466C216.107 13.3156 173.874 -2.00714 133.205 0.209818C83.1823 2.76982 38.1263 31.4418 15.4191 77.2658C-7.51849 123.602 -6.23849 184.018 28.5775 248.018C63.2143 311.506 131.054 379.09 243.157 444.37L256.059 452.05L268.936 444.37ZM256.044 377.505C162.344 319.883 110.279 264.121 84.7809 217.404C57.8855 167.947 60.8437 129.784 72.7646 105.682C72.7663 105.679 72.768 105.675 72.7697 105.672C72.7718 105.668 72.7739 105.663 72.7761 105.659C84.987 81.0377 109.078 65.5283 136.476 64.1262L136.582 64.1207L136.688 64.1149C158.931 62.9024 185.482 71.2721 210.465 96.6053L256.049 142.827L301.617 96.5894C326.57 71.2697 353.113 62.9032 375.325 64.1148L375.433 64.1207L375.54 64.1262C402.938 65.5283 427.029 81.0377 439.24 105.659C439.242 105.663 439.244 105.668 439.246 105.672C439.248 105.675 439.25 105.679 439.251 105.682C451.174 129.789 454.132 167.962 427.219 217.434C401.774 264.123 349.73 319.878 256.044 377.505Z" fill="#F9185C"/>
</svg>
