<svg width="512" height="512" viewBox="0 0 512 512" fill="none" xmlns="http://www.w3.org/2000/svg">
<mask id="path-1-inside-1_33_21" fill="white">
<path d="M186.038 408.597C179.212 405.752 174.438 399.461 173.535 392.121L150.967 208.636C148.62 189.557 163.505 172.729 182.728 172.729H329.272C348.495 172.729 363.38 189.557 361.033 208.636L338.611 390.938C337.622 398.974 332.283 405.811 324.726 408.718C322.215 409.684 319.548 410.179 316.858 410.179H193.949C191.234 410.179 188.545 409.641 186.038 408.597Z"/>
<path d="M149.277 118.314C143.686 118.314 138.438 121.014 135.188 125.564C130.888 131.584 130.888 139.672 135.188 145.692C138.438 150.242 143.686 152.942 149.277 152.942H362.285C367.417 152.942 372.278 150.633 375.52 146.654C380.496 140.546 380.648 131.827 375.886 125.551L375.662 125.255C372.345 120.882 367.172 118.314 361.684 118.314H149.277Z"/>
<path d="M202.356 101C200.086 101 198.106 102.545 197.556 104.748L194.425 117.27C193.911 119.328 196.537 120.661 197.894 119.032C198.274 118.577 198.835 118.314 199.427 118.314H312.541C313.157 118.314 313.744 118.572 314.16 119.026C315.718 120.726 318.508 119.183 317.896 116.96L314.564 104.842C313.94 102.573 311.876 101 309.522 101H202.356Z"/>
</mask>
<path d="M314.564 104.842L191.146 138.782L314.564 104.842ZM197.556 104.748L73.3775 73.7036L197.556 104.748ZM375.886 125.551L477.863 48.1895L375.886 125.551ZM375.662 125.255L477.638 47.8936L375.662 125.255ZM361.033 208.636L233.99 193.01L361.033 208.636ZM338.611 390.938L211.568 375.312L338.611 390.938ZM173.535 392.121L46.492 407.747L173.535 392.121ZM23.9243 224.261L46.492 407.747L300.577 376.495L278.01 193.01L23.9243 224.261ZM193.949 538.179H316.858V282.179H193.949V538.179ZM465.654 406.563L488.076 224.261L233.99 193.01L211.568 375.312L465.654 406.563ZM329.272 44.7295H182.728V300.729H329.272V44.7295ZM149.277 246.314H361.684V-9.68599H149.277V246.314ZM273.685 202.617L273.91 202.912L477.863 48.1895L477.638 47.8936L273.685 202.617ZM362.285 24.942H149.277V280.942H362.285V24.942ZM318.603 148.315L321.734 135.793L73.3775 73.7036L70.2469 86.2259L318.603 148.315ZM202.356 229H309.522V-27H202.356V229ZM191.146 138.782L194.478 150.9L441.315 83.0199L437.982 70.9023L191.146 138.782ZM312.541 -9.68599H199.427V246.314H312.541V-9.68599ZM199.427 -9.68599C160.848 -9.68599 124.261 7.45006 99.562 37.0885L296.227 200.976C272.286 229.704 236.823 246.314 199.427 246.314V-9.68599ZM408.516 32.5334C383.855 5.63112 349.036 -9.68599 312.541 -9.68599V246.314C277.278 246.314 243.633 231.514 219.804 205.519L408.516 32.5334ZM194.478 150.9C159.457 23.5521 319.269 -64.8264 408.516 32.5334L219.804 205.519C312.166 306.278 477.558 214.814 441.315 83.0199L194.478 150.9ZM309.522 229C254.255 229 205.8 192.072 191.146 138.782L437.982 70.9023C422.079 13.074 369.497 -27 309.522 -27V229ZM321.734 135.793C308.039 190.571 258.821 229 202.356 229V-27C141.351 -27 88.1735 14.5193 73.3775 73.7036L321.734 135.793ZM70.2469 86.2259C36.7393 220.257 207.781 307.11 296.227 200.976L99.562 37.0885C185.292 -65.7876 351.082 18.3997 318.603 148.315L70.2469 86.2259ZM149.277 24.942C185.023 24.942 218.569 42.2052 239.346 71.2931L31.0304 220.09C58.3075 258.278 102.348 280.942 149.277 280.942V24.942ZM276.29 65.7996C297.356 39.946 328.935 24.942 362.285 24.942V280.942C405.899 280.942 447.2 261.32 474.75 227.508L276.29 65.7996ZM273.91 202.912C242.974 162.133 243.957 105.481 276.29 65.7996L474.75 227.508C517.035 175.612 518.321 101.521 477.863 48.1895L273.91 202.912ZM361.684 246.314C327.131 246.314 294.569 230.145 273.685 202.617L477.638 47.8936C450.12 11.6202 407.214 -9.68599 361.684 -9.68599V246.314ZM239.346 199.963C218.569 229.051 185.023 246.314 149.277 246.314V-9.68599C102.348 -9.68599 58.3075 12.978 31.0304 51.166L239.346 199.963ZM31.0304 51.166C-5.05914 101.691 -5.05913 169.565 31.0304 220.09L239.346 71.2931C266.836 109.778 266.836 161.478 239.346 199.963L31.0304 51.166ZM488.076 224.261C499.809 128.867 425.385 44.7295 329.272 44.7295V300.729C271.604 300.729 226.951 250.247 233.99 193.01L488.076 224.261ZM370.675 528.186C422.371 508.303 458.892 461.537 465.654 406.563L211.568 375.312C216.353 336.412 242.196 303.319 278.776 289.25L370.675 528.186ZM316.858 538.179C335.258 538.179 353.501 534.791 370.675 528.186L278.776 289.25C290.929 284.576 303.838 282.179 316.858 282.179V538.179ZM136.808 526.75C154.914 534.295 174.335 538.179 193.949 538.179V282.179C208.133 282.179 222.177 284.987 235.269 290.443L136.808 526.75ZM46.492 407.747C53.0132 460.767 87.4972 506.204 136.808 526.75L235.269 290.443C270.926 305.3 295.862 338.156 300.577 376.495L46.492 407.747ZM278.01 193.01C285.049 250.247 240.395 300.729 182.728 300.729V44.7295C86.6149 44.7295 12.1914 128.867 23.9243 224.261L278.01 193.01Z" fill="#C80000" mask="url(#path-1-inside-1_33_21)"/>
</svg>
