<svg width="512" height="512" viewBox="0 0 512 512" fill="none" xmlns="http://www.w3.org/2000/svg">
<mask id="path-1-inside-1_56_2" fill="white">
<path fill-rule="evenodd" clip-rule="evenodd" d="M440.674 349.942L359.49 410.83L272.341 476.192V383.596H174.298H163.404V383.261C72.2167 377.638 0 301.901 0 209.298C0 116.694 72.2167 40.9582 163.404 35.3349V35H174.298H337.702H337.702C433.964 35.0001 512 113.036 512 209.298C512 264.399 486.432 313.528 446.512 345.468H446.639L443.674 347.692C442.682 348.452 441.682 349.202 440.674 349.942Z"/>
</mask>
<path d="M440.674 349.942L412.287 311.235L412.079 311.388L411.874 311.542L440.674 349.942ZM359.49 410.83L330.69 372.43L359.49 410.83ZM272.341 476.192H224.341V572.192L301.141 514.592L272.341 476.192ZM272.341 383.596H320.341V335.596H272.341V383.596ZM163.404 383.596H115.404V431.596H163.404V383.596ZM163.404 383.261H211.404V338.13L166.359 335.352L163.404 383.261ZM163.404 35.3349L166.359 83.2439L211.404 80.4661V35.3349H163.404ZM163.404 35V-13H115.404V35H163.404ZM337.702 35L337.702 -13H337.702V35ZM446.512 345.468L416.524 307.989L309.69 393.468H446.512V345.468ZM446.639 345.468L475.438 383.868L590.639 297.468H446.639V345.468ZM443.674 347.692L414.874 309.292L414.668 309.446L414.464 309.603L443.674 347.692ZM411.874 311.542L330.69 372.43L388.29 449.23L469.474 388.342L411.874 311.542ZM330.69 372.43L243.541 437.792L301.141 514.592L388.29 449.23L330.69 372.43ZM320.341 476.192V383.596H224.341V476.192H320.341ZM272.341 335.596H174.298V431.596H272.341V335.596ZM174.298 335.596H163.404V431.596H174.298V335.596ZM211.404 383.596V383.261H115.404V383.596H211.404ZM166.359 335.352C100.328 331.28 48 276.382 48 209.298H-48C-48 327.421 44.1055 423.995 160.45 431.17L166.359 335.352ZM48 209.298C48 142.214 100.328 87.3158 166.359 83.2439L160.45 -12.5741C44.1055 -5.39948 -48 91.1746 -48 209.298H48ZM211.404 35.3349V35H115.404V35.3349H211.404ZM163.404 83H174.298V-13H163.404V83ZM174.298 83H337.702V-13H174.298V83ZM337.702 83H337.702V-13H337.702V83ZM337.702 83C407.455 83.0001 464 139.546 464 209.298H560C560 86.5263 460.474 -12.9998 337.702 -13L337.702 83ZM464 209.298C464 249.203 445.549 284.766 416.524 307.989L476.5 382.948C527.315 342.29 560 279.595 560 209.298H464ZM446.512 393.468H446.639V297.468H446.512V393.468ZM417.839 307.068L414.874 309.292L472.474 386.092L475.438 383.868L417.839 307.068ZM414.464 309.603C413.744 310.155 413.019 310.699 412.287 311.235L469.06 388.649C470.345 387.706 471.62 386.75 472.884 385.781L414.464 309.603Z" fill="white" mask="url(#path-1-inside-1_56_2)"/>
</svg>
