<svg width="512" height="512" viewBox="0 0 512 512" fill="none" xmlns="http://www.w3.org/2000/svg">
<path d="M350.08 379.52L378.88 350.72L277.12 248.32V119.68H238.72V263.68L350.08 379.52ZM256 512C221.013 512 187.947 505.28 156.8 491.84C125.653 478.4 98.4533 460.053 75.2 436.8C51.9467 413.547 33.6 386.347 20.16 355.2C6.72 324.053 0 290.987 0 256C0 221.013 6.72 187.947 20.16 156.8C33.6 125.653 51.9467 98.4533 75.2 75.2C98.4533 51.9467 125.653 33.6 156.8 20.16C187.947 6.72 221.013 0 256 0C290.987 0 324.053 6.72 355.2 20.16C386.347 33.6 413.547 51.9467 436.8 75.2C460.053 98.4533 478.4 125.653 491.84 156.8C505.28 187.947 512 221.013 512 256C512 290.987 505.28 324.053 491.84 355.2C478.4 386.347 460.053 413.547 436.8 436.8C413.547 460.053 386.347 478.4 355.2 491.84C324.053 505.28 290.987 512 256 512ZM256 473.6C315.733 473.6 366.933 452.267 409.6 409.6C452.267 366.933 473.6 315.733 473.6 256C473.6 196.267 452.267 145.067 409.6 102.4C366.933 59.7333 315.733 38.4 256 38.4C196.267 38.4 145.067 59.7333 102.4 102.4C59.7333 145.067 38.4 196.267 38.4 256C38.4 315.733 59.7333 366.933 102.4 409.6C145.067 452.267 196.267 473.6 256 473.6Z" fill="white"/>
</svg>
