<svg width="512" height="512" viewBox="0 0 512 512" fill="none" xmlns="http://www.w3.org/2000/svg">
<path d="M320.943 301.621C309.805 301.621 298.846 299.825 288.067 296.232C277.288 292.279 266.689 287.788 256.269 282.758C245.85 277.728 235.251 273.416 224.472 269.823C214.052 265.871 203.273 263.895 192.135 263.895C178.481 263.895 166.445 266.589 156.025 271.979C145.965 277.009 136.623 285.093 128 296.232V238.025C134.108 229.761 142.911 223.114 154.408 218.084C166.265 212.695 178.841 210 192.135 210C204.71 210 216.387 211.976 227.166 215.928C237.945 219.521 248.365 223.833 258.425 228.863C268.845 233.893 279.085 238.385 289.145 242.337C299.206 245.93 309.805 247.726 320.943 247.726C334.596 247.726 346.274 245.211 355.975 240.181C366.035 235.151 375.377 227.067 384 215.928V274.135C377.892 282.758 369.269 289.585 358.131 294.615C346.992 299.286 334.596 301.621 320.943 301.621Z" fill="white"/>
</svg>
