<svg width="512" height="512" viewBox="0 0 512 512" fill="none" xmlns="http://www.w3.org/2000/svg">
<path d="M252.337 84.7907C255.302 85.186 259.651 85.186 262.221 84.7907C264.593 84.3953 262.221 84 256.686 84C251.349 84 249.174 84.3953 252.337 84.7907Z" fill="url(#paint0_linear_44_38)"/>
<path d="M227.629 86.7674C229.012 87.3604 230.791 87.1627 231.384 86.5697C232.175 85.9767 230.989 85.3837 228.815 85.5813C226.64 85.5813 226.047 86.1744 227.629 86.7674Z" fill="url(#paint1_linear_44_38)"/>
<path d="M279.022 86.7674C280.208 87.1627 282.581 87.1627 283.964 86.7674C285.15 86.1744 284.162 85.779 281.395 85.779C278.627 85.779 277.639 86.1744 279.022 86.7674Z" fill="url(#paint2_linear_44_38)"/>
<path d="M213.792 88.7441C215.175 89.3371 216.954 89.1394 217.547 88.5464C218.338 87.9534 217.152 87.3604 214.978 87.558C212.803 87.558 212.21 88.1511 213.792 88.7441Z" fill="url(#paint3_linear_44_38)"/>
<path d="M176.63 99.2205C175.049 100.209 174.653 101.197 175.642 101.197C176.828 101.197 179.002 100.209 180.583 99.2205C182.165 98.2322 182.758 97.2438 181.572 97.2438C180.583 97.2438 178.211 98.2322 176.63 99.2205Z" fill="url(#paint4_linear_44_38)"/>
<path d="M332.788 100.209C335.556 101.79 338.718 102.976 339.707 102.976C340.893 102.976 339.509 101.79 336.742 100.209C333.974 98.6275 331.009 97.4415 329.823 97.4415C328.835 97.4415 330.021 98.6275 332.788 100.209Z" fill="url(#paint5_linear_44_38)"/>
<path d="M167.735 103.174C167.142 104.36 167.933 104.558 169.514 103.965C173.072 102.581 173.665 101.197 170.898 101.197C169.712 101.197 168.328 101.988 167.735 103.174Z" fill="url(#paint6_linear_44_38)"/>
<path d="M236.524 104.558C238.303 104.953 241.465 104.953 243.442 104.558C245.221 103.965 243.64 103.569 239.884 103.569C236.128 103.569 234.547 103.965 236.524 104.558Z" fill="url(#paint7_linear_44_38)"/>
<path d="M255.302 104.558C256.686 105.151 258.465 104.953 259.058 104.36C259.849 103.767 258.663 103.174 256.488 103.372C254.314 103.372 253.721 103.965 255.302 104.558Z" fill="url(#paint8_linear_44_38)"/>
<path d="M268.151 104.558C269.93 104.953 273.092 104.953 275.069 104.558C276.848 103.965 275.267 103.569 271.511 103.569C267.755 103.569 266.174 103.965 268.151 104.558Z" fill="url(#paint9_linear_44_38)"/>
<path d="M159.828 107.127C159.235 108.313 160.026 108.511 161.607 107.918C165.165 106.534 165.758 105.151 162.991 105.151C161.805 105.151 160.421 105.941 159.828 107.127Z" fill="url(#paint10_linear_44_38)"/>
<path d="M222.687 106.534C224.466 106.93 227.233 106.93 228.617 106.534C229.803 105.941 228.419 105.546 225.059 105.546C221.896 105.546 220.71 105.941 222.687 106.534Z" fill="url(#paint11_linear_44_38)"/>
<path d="M282.976 106.534C284.162 106.93 286.534 106.93 287.918 106.534C289.104 105.941 288.115 105.546 285.348 105.546C282.581 105.546 281.592 105.941 282.976 106.534Z" fill="url(#paint12_linear_44_38)"/>
<path d="M292.859 108.511C294.045 108.906 296.417 108.906 297.801 108.511C298.987 107.918 297.999 107.523 295.231 107.523C292.464 107.523 291.476 107.918 292.859 108.511Z" fill="url(#paint13_linear_44_38)"/>
<path d="M350.579 107.72C350.579 108.116 356.113 111.871 362.636 116.022C385.368 130.057 408.496 156.347 419.96 180.858C421.937 185.404 423.123 186.986 422.53 184.218C418.379 167.416 395.845 138.359 373.903 121.952C362.241 113.255 350.579 106.139 350.579 107.72Z" fill="url(#paint14_linear_44_38)"/>
<path d="M145.991 115.232C125.236 128.475 99.1438 157.73 90.644 177.497C85.307 189.753 79.7722 208.334 79.7722 214.264C79.7722 219.403 77.4002 220.984 71.4702 219.996C70.4818 219.996 69.8888 220.787 69.8888 221.775C69.8888 222.961 68.5051 222.961 66.1331 221.38C63.9587 220.194 62.7727 217.624 63.3657 216.043C64.1564 213.275 64.1564 213.275 62.1797 215.845C60.9937 217.426 60.0054 220.787 60.0054 223.159C60.0054 225.531 59.2147 228.101 58.0287 228.694C57.0403 229.287 56.052 228.496 56.052 226.717C56.052 224.938 54.6683 222.17 53.087 220.589C51.3079 218.81 50.1219 218.415 50.1219 219.798C50.1219 220.984 49.3312 221.577 48.1452 220.787C47.1569 220.194 46.9592 218.217 47.5522 216.24C48.3429 214.461 46.3662 215.647 43.0058 219.008C39.8431 222.17 37.8665 223.949 38.8548 222.961C41.8198 218.81 40.0408 217.426 36.2851 220.787C33.7154 223.159 32.3317 223.554 32.3317 221.775C32.3317 220.391 30.5527 221.38 28.576 223.949C24.8203 228.496 24.6226 228.496 25.611 224.345C26.204 221.973 25.8087 218.415 24.6226 216.438C22.646 213.473 22.646 213.671 23.6343 218.019C24.2273 221.182 23.6343 223.949 21.6576 225.531C19.2856 227.508 18.8902 227.31 19.8786 224.147C20.2739 221.973 19.8786 219.601 18.4949 218.81C17.1112 218.019 16.3206 218.612 16.7159 219.996C17.3089 225.531 16.5182 229.88 14.9369 228.891C13.9485 228.298 13.5532 224.74 13.7509 220.787L14.3439 213.473L6.04177 224.147L3.47208 218.612C1.69306 214.659 0.902384 214.066 1.29772 216.833C1.49539 219.008 0.500978 220.767 0 223.773C0 225.777 3.10551e-06 225.777 0.500982 227.28C0.92315 228.546 1.69306 230.473 1.10005 233.635C0.111709 240.554 7.82079 257.553 15.7275 266.646C21.4599 272.774 181.176 399.084 198.571 410.944C225.454 429.525 267.953 432.292 300.173 417.665C317.173 409.956 487.761 275.936 500.412 260.321C508.318 250.832 514.644 226.717 510.888 220.194C509.109 217.229 508.911 217.229 508.714 221.182C508.714 223.554 507.923 226.124 506.737 226.717C505.749 227.31 504.76 226.124 504.76 223.752C504.76 220.194 504.167 219.996 500.412 221.973C496.854 223.95 496.458 223.752 497.447 220.984C498.237 219.205 497.842 217.822 496.854 217.822C495.667 217.822 494.877 219.008 494.877 220.194C494.877 221.577 492.505 223.752 489.737 225.136C484.796 227.508 484.598 227.31 487.761 223.949C489.54 221.973 490.923 219.205 490.923 217.624C490.923 216.24 489.54 217.031 487.563 219.601C484.4 224.147 484.203 224.147 482.819 220.589C481.633 217.624 481.238 217.426 481.238 219.996C481.04 221.775 479.854 224.345 478.273 225.531C475.901 227.508 475.703 227.112 476.494 223.949C477.877 218.415 473.726 218.612 467.401 224.147C464.633 226.717 463.448 227.31 464.831 225.729C466.017 224.147 467.203 221.775 467.203 220.194C467.203 218.415 465.819 219.205 463.447 221.973C459.692 226.519 459.494 226.519 460.482 222.566C461.075 220.194 460.482 217.624 459.099 216.636C457.32 215.647 456.924 216.24 457.913 218.415C458.506 220.194 458.308 222.17 457.32 222.763C456.529 223.356 455.145 222.566 454.75 221.38C454.157 219.996 453.564 221.38 453.564 224.345C453.366 230.473 449.413 229.88 449.413 223.752C449.413 220.984 448.425 220.194 446.25 221.182C444.471 221.775 442.297 221.182 441.309 219.601C439.925 217.426 439.53 217.426 439.53 219.403C439.53 220.787 438.739 221.38 437.553 220.787C436.564 220.194 435.576 220.589 435.576 221.973C435.576 223.95 434.983 223.95 433.204 221.973C431.227 219.798 431.227 219.205 433.204 218.415C434.39 217.822 435.576 216.043 435.576 214.264C435.576 211.299 435.181 211.299 433.6 213.868C432.018 216.24 431.623 216.043 431.623 212.682C431.623 210.31 430.239 205.369 428.658 201.811L425.693 195.09L427.274 203.985C428.065 208.927 428.46 220.787 428.262 230.67C427.274 295.308 373.31 350.26 295.231 366.469C270.325 371.608 229.21 370.62 204.304 364.097C146.782 349.074 102.504 310.528 87.2837 262.297C75.6212 225.333 82.5396 187.183 106.458 154.568C115.55 142.312 136.701 122.545 147.968 116.022C155.677 111.476 158.444 109.104 156.27 109.104C155.875 109.104 151.328 111.871 145.991 115.232ZM44.7849 225.729C44.1919 227.903 43.0058 229.089 41.8198 228.496C40.8315 227.903 41.0292 226.124 42.4128 224.543C45.5755 220.787 45.9709 220.984 44.7849 225.729ZM64.9471 223.554C65.5401 224.543 65.1447 225.926 63.9587 226.717C62.9704 227.31 61.9821 226.519 61.9821 224.938C61.9821 221.38 63.1681 220.787 64.9471 223.554ZM447.436 224.543C447.436 226.717 443.681 227.508 442.495 225.729C441.902 224.74 442.692 223.752 444.274 223.752C446.053 223.752 447.436 224.147 447.436 224.543ZM502.784 226.915C502.784 228.496 501.795 229.287 500.807 228.694C499.621 227.903 499.226 226.519 499.819 225.531C501.598 222.763 502.784 223.356 502.784 226.915Z" fill="url(#paint15_linear_44_38)"/>
<path d="M205.885 110.488C207.269 111.081 209.048 110.883 209.641 110.29C210.431 109.697 209.245 109.104 207.071 109.302C204.897 109.302 204.304 109.895 205.885 110.488Z" fill="url(#paint16_linear_44_38)"/>
<path d="M194.42 113.057C192.839 114.046 192.443 115.034 193.432 115.034C194.618 115.034 196.792 114.046 198.374 113.057C199.955 112.069 200.548 111.081 199.362 111.081C198.374 111.081 196.002 112.069 194.42 113.057Z" fill="url(#paint17_linear_44_38)"/>
<path d="M184.537 117.011C182.955 117.999 182.56 118.987 183.548 118.987C184.734 118.987 186.909 117.999 188.49 117.011C190.071 116.022 190.664 115.034 189.478 115.034C188.49 115.034 186.118 116.022 184.537 117.011Z" fill="url(#paint18_linear_44_38)"/>
<path d="M337.73 124.522C359.671 135.789 383.985 158.916 393.473 177.3C399.996 190.148 404.542 206.555 404.74 218.415C404.937 228.694 402.565 229.682 400.786 220.391C399.996 216.24 399.007 214.264 398.414 215.845C397.228 219.403 394.461 221.775 388.136 225.531C383.392 228.298 383.194 228.101 386.752 224.345C392.089 218.415 390.705 216.636 384.775 221.973L379.636 226.717L382.799 221.775C384.578 219.205 386.159 216.043 386.159 215.054C386.159 213.868 384.775 215.054 382.996 217.624C380.427 221.182 379.438 221.577 377.857 219.601C376.473 217.426 376.078 217.822 376.473 220.787C377.066 228.101 376.078 228.694 373.113 222.763C370.938 218.415 370.543 218.019 371.136 221.182C371.531 223.752 371.136 226.322 370.148 226.915C369.159 227.508 368.369 226.717 368.369 225.136C368.369 223.554 366.985 221.182 365.404 219.798C362.439 217.229 361.253 219.403 364.02 222.961C364.811 223.949 363.427 222.763 361.055 220.194C355.718 214.857 355.125 216.833 359.869 223.752L363.032 228.694L357.497 223.752C353.346 220.194 352.16 219.798 353.148 222.17C353.741 224.147 353.544 226.124 352.555 226.717C350.579 227.903 349.788 223.752 350.381 218.019C350.776 216.636 349.788 216.043 348.602 216.833C347.416 217.624 346.625 219.601 346.823 221.38C347.416 228.496 346.428 228.298 342.672 220.787C339.311 213.671 338.916 213.473 338.718 218.019C338.718 220.787 338.125 223.554 337.532 224.345C335.753 226.124 326.463 216.043 327.847 213.868C328.44 212.682 328.44 211.892 327.451 211.892C326.661 211.892 325.87 218.81 325.87 227.31C325.87 239.763 324.882 243.914 321.324 249.844L316.777 257.158L328.835 275.146C335.556 285.227 340.497 293.727 339.904 294.517C339.114 295.11 328.044 291.355 315.196 286.215L291.871 276.727L282.58 279.89C273.685 283.052 265.581 284.041 265.581 282.064C265.581 281.669 267.558 277.122 269.93 272.378C272.895 266.251 276.057 262.693 279.813 261.507C294.836 256.17 303.929 243.519 303.929 227.508C304.126 218.217 303.138 215.252 298.196 208.729C294.836 204.578 291.673 199.241 290.883 197.067C289.894 193.706 289.697 193.904 289.499 198.45C289.301 201.613 291.08 205.369 293.452 207.741C297.603 211.496 301.754 224.543 299.58 226.717C298.987 227.31 297.208 225.333 295.824 222.368C293.848 218.019 293.452 217.822 294.045 221.182C294.441 223.554 293.65 226.717 292.069 227.903C289.894 229.682 289.499 229.682 290.29 227.508C290.883 225.926 290.487 221.973 289.499 218.81C288.115 214.066 287.72 213.671 287.522 217.229C287.127 226.519 284.359 222.763 283.964 212.485C283.371 196.276 282.185 197.857 280.801 216.438C279.418 232.647 279.022 234.031 253.523 285.82C239.489 314.877 226.838 338.4 225.652 338.004C223.478 337.214 223.28 318.238 225.059 303.412C225.257 300.447 226.245 285.029 227.036 269.216C227.826 253.402 228.617 236.403 229.21 231.461C229.803 224.542 236.128 209.915 254.116 174.137C280.406 121.952 281.197 119.976 276.848 125.906C275.267 128.08 264 149.626 251.744 173.939C239.489 198.055 228.617 218.415 227.826 219.008C226.838 219.601 226.64 218.415 227.431 216.438C228.222 214.461 226.443 215.647 223.477 219.008C220.512 222.566 218.14 226.322 218.14 227.705C218.14 228.891 217.152 229.287 215.966 228.496C214.385 227.705 214.385 226.717 215.966 225.136C219.722 221.38 218.338 219.008 214.582 222.566C211.024 225.531 210.827 225.531 211.222 219.798C211.617 212.682 217.547 203.985 224.268 200.625C227.036 199.043 227.826 198.055 226.047 198.055C224.268 198.055 219.722 201.218 215.768 205.171C204.106 216.438 203.118 235.414 213.396 248.856C217.35 254.193 218.338 257.356 217.943 265.262C217.547 270.797 216.361 276.134 215.175 277.122C212.408 279.297 175.049 294.913 172.281 294.913C168.921 294.913 171.095 290.169 182.56 273.169C189.281 263.088 193.432 254.984 192.443 254.39C185.525 250.042 181.572 223.356 186.316 211.496C187.897 207.148 187.897 206.357 185.525 207.148C184.141 207.741 183.153 209.322 183.746 210.903C184.339 212.287 183.351 214.857 181.572 216.636C179.793 218.415 178.607 221.182 179.2 222.566C181.374 227.903 177.816 227.705 175.246 222.368C173.27 218.019 172.874 217.822 173.467 221.182C173.863 223.554 173.27 226.519 171.886 227.508C170.107 229.089 169.514 227.31 169.909 220.194C170.107 212.485 169.712 211.694 168.13 215.252C166.944 217.822 164.77 219.798 163.189 219.798C161.212 219.798 160.619 221.182 161.409 224.147L162.596 228.694L158.642 223.949C156.072 220.787 154.886 220.194 154.886 222.368C154.886 223.949 153.7 226.322 152.119 227.508C149.945 229.287 149.549 228.694 150.142 224.345C150.538 221.182 150.34 220.391 149.747 222.368C148.166 227.112 145.003 224.542 144.805 218.217L144.608 212.88L143.026 218.81L141.643 224.74L139.271 219.798L137.096 214.857L137.689 220.194C138.085 223.356 137.294 226.717 135.91 227.903C133.934 229.484 133.736 228.891 134.527 225.729C135.515 222.17 134.922 221.775 130.968 222.17C128.399 222.566 125.236 223.554 123.852 224.345C122.073 225.333 121.678 223.752 122.271 218.415C123.062 211.892 122.864 211.694 121.678 216.833C120.69 220.787 119.701 221.973 118.713 220.194C115.946 215.845 110.806 217.229 111.992 222.17C112.981 225.926 112.783 226.124 110.213 223.356C98.7484 211.892 113.771 173.742 139.271 149.231C152.514 136.382 157.061 133.022 170.7 125.313C176.63 121.755 180.781 118.987 179.793 118.987C174.653 118.987 148.363 136.975 136.899 148.44C90.051 195.288 90.051 260.321 136.899 306.97C167.34 337.214 206.676 352.237 256.488 352.434C332.195 352.632 395.252 308.552 406.914 247.077C414.228 208.136 398.414 167.812 365.008 140.138C354.532 131.638 325.672 115.034 321.521 115.034C320.731 115.232 328.044 119.383 337.73 124.522ZM117.132 222.566C118.515 224.147 118.713 225.926 117.725 226.519C116.539 227.112 115.353 225.926 114.76 223.752C113.574 219.008 113.969 218.81 117.132 222.566ZM167.735 223.752C168.328 224.938 167.537 225.136 165.956 224.542C162.398 223.159 161.805 221.775 164.572 221.775C165.758 221.775 167.142 222.566 167.735 223.752ZM226.047 222.566C226.047 222.961 224.466 224.543 222.687 225.926C219.524 228.496 219.326 228.298 221.896 225.136C224.466 221.973 226.047 220.984 226.047 222.566Z" fill="url(#paint19_linear_44_38)"/>
<path d="M287.918 128.871C287.918 133.813 288.313 135.789 288.708 133.22C289.104 130.848 289.104 126.894 288.708 124.324C288.313 121.952 287.918 123.929 287.918 128.871Z" fill="url(#paint20_linear_44_38)"/>
<path d="M285.941 152.591C285.941 160.695 286.336 164.056 286.732 159.905C287.127 155.951 287.127 149.231 286.732 145.08C286.336 141.126 285.941 144.487 285.941 152.591Z" fill="url(#paint21_linear_44_38)"/>
<path d="M283.964 181.253C283.964 188.764 284.36 191.73 284.755 187.578C285.15 183.625 285.15 177.3 284.755 173.742C284.36 170.381 283.964 173.544 283.964 181.253Z" fill="url(#paint22_linear_44_38)"/>
<path d="M289.499 185.404C289.499 187.578 290.092 188.171 290.685 186.59C291.278 185.206 291.08 183.427 290.487 182.834C289.894 182.044 289.301 183.23 289.499 185.404Z" fill="url(#paint23_linear_44_38)"/>
<path d="M189.281 198.648C189.478 202.601 190.071 203.194 192.048 201.613C193.432 200.427 193.827 198.846 193.036 198.253C192.246 197.462 190.862 196.276 190.269 195.485C189.478 194.497 189.083 196.078 189.281 198.648Z" fill="url(#paint24_linear_44_38)"/>
<path d="M229.605 195.485C230.989 196.078 232.768 195.881 233.361 195.288C234.152 194.695 232.966 194.102 230.791 194.299C228.617 194.299 228.024 194.892 229.605 195.485Z" fill="url(#paint25_linear_44_38)"/>
<path d="M318.161 197.067C316.382 202.206 316.777 203.392 319.149 199.439C320.335 197.462 320.928 195.288 320.335 194.892C319.94 194.299 318.952 195.288 318.161 197.067Z" fill="url(#paint26_linear_44_38)"/>
<path d="M320.928 205.764C320.928 206.752 321.917 208.334 322.905 208.927C324.091 209.52 324.882 209.322 324.882 208.136C324.882 207.148 324.091 205.566 322.905 204.973C321.917 204.38 320.928 204.578 320.928 205.764Z" fill="url(#paint27_linear_44_38)"/>
<path d="M506.737 211.694C506.737 212.682 507.725 214.264 508.714 214.857C509.9 215.45 510.69 215.252 510.69 214.066C510.69 213.078 509.9 211.496 508.714 210.903C507.725 210.31 506.737 210.508 506.737 211.694Z" fill="url(#paint28_linear_44_38)"/>
<path d="M502.981 215.054C502.981 217.229 503.574 217.822 504.167 216.24C504.76 214.857 504.563 213.078 503.97 212.485C503.377 211.694 502.784 212.88 502.981 215.054Z" fill="url(#paint29_linear_44_38)"/>
<path d="M128.596 217.229C127.806 217.822 127.213 219.403 127.213 220.589C127.213 221.775 128.201 221.577 129.585 220.194C130.771 219.008 131.364 217.426 130.969 216.833C130.375 216.24 129.189 216.438 128.596 217.229Z" fill="url(#paint30_linear_44_38)"/>
<path d="M237.71 234.228C237.512 238.775 237.314 244.705 236.919 247.472C236.721 250.239 235.733 263.286 235.14 276.529C234.547 289.773 233.361 303.61 232.768 307.168C231.977 312.9 232.175 312.703 235.535 304.796C237.512 299.854 246.209 281.471 254.907 263.879L270.523 231.856L260.639 230.67C255.302 229.88 247.791 228.694 244.43 227.705L237.907 226.124L237.71 234.228Z" fill="url(#paint31_linear_44_38)"/>
<defs>
<linearGradient id="paint0_linear_44_38" x1="256" y1="84" x2="256" y2="427.011" gradientUnits="userSpaceOnUse">
<stop stop-color="#FF0000"/>
<stop offset="1" stop-color="#FF8A00"/>
</linearGradient>
<linearGradient id="paint1_linear_44_38" x1="256" y1="84" x2="256" y2="427.011" gradientUnits="userSpaceOnUse">
<stop stop-color="#FF0000"/>
<stop offset="1" stop-color="#FF8A00"/>
</linearGradient>
<linearGradient id="paint2_linear_44_38" x1="256" y1="84" x2="256" y2="427.011" gradientUnits="userSpaceOnUse">
<stop stop-color="#FF0000"/>
<stop offset="1" stop-color="#FF8A00"/>
</linearGradient>
<linearGradient id="paint3_linear_44_38" x1="256" y1="84" x2="256" y2="427.011" gradientUnits="userSpaceOnUse">
<stop stop-color="#FF0000"/>
<stop offset="1" stop-color="#FF8A00"/>
</linearGradient>
<linearGradient id="paint4_linear_44_38" x1="256" y1="84" x2="256" y2="427.011" gradientUnits="userSpaceOnUse">
<stop stop-color="#FF0000"/>
<stop offset="1" stop-color="#FF8A00"/>
</linearGradient>
<linearGradient id="paint5_linear_44_38" x1="256" y1="84" x2="256" y2="427.011" gradientUnits="userSpaceOnUse">
<stop stop-color="#FF0000"/>
<stop offset="1" stop-color="#FF8A00"/>
</linearGradient>
<linearGradient id="paint6_linear_44_38" x1="256" y1="84" x2="256" y2="427.011" gradientUnits="userSpaceOnUse">
<stop stop-color="#FF0000"/>
<stop offset="1" stop-color="#FF8A00"/>
</linearGradient>
<linearGradient id="paint7_linear_44_38" x1="256" y1="84" x2="256" y2="427.011" gradientUnits="userSpaceOnUse">
<stop stop-color="#FF0000"/>
<stop offset="1" stop-color="#FF8A00"/>
</linearGradient>
<linearGradient id="paint8_linear_44_38" x1="256" y1="84" x2="256" y2="427.011" gradientUnits="userSpaceOnUse">
<stop stop-color="#FF0000"/>
<stop offset="1" stop-color="#FF8A00"/>
</linearGradient>
<linearGradient id="paint9_linear_44_38" x1="256" y1="84" x2="256" y2="427.011" gradientUnits="userSpaceOnUse">
<stop stop-color="#FF0000"/>
<stop offset="1" stop-color="#FF8A00"/>
</linearGradient>
<linearGradient id="paint10_linear_44_38" x1="256" y1="84" x2="256" y2="427.011" gradientUnits="userSpaceOnUse">
<stop stop-color="#FF0000"/>
<stop offset="1" stop-color="#FF8A00"/>
</linearGradient>
<linearGradient id="paint11_linear_44_38" x1="256" y1="84" x2="256" y2="427.011" gradientUnits="userSpaceOnUse">
<stop stop-color="#FF0000"/>
<stop offset="1" stop-color="#FF8A00"/>
</linearGradient>
<linearGradient id="paint12_linear_44_38" x1="256" y1="84" x2="256" y2="427.011" gradientUnits="userSpaceOnUse">
<stop stop-color="#FF0000"/>
<stop offset="1" stop-color="#FF8A00"/>
</linearGradient>
<linearGradient id="paint13_linear_44_38" x1="256" y1="84" x2="256" y2="427.011" gradientUnits="userSpaceOnUse">
<stop stop-color="#FF0000"/>
<stop offset="1" stop-color="#FF8A00"/>
</linearGradient>
<linearGradient id="paint14_linear_44_38" x1="256" y1="84" x2="256" y2="427.011" gradientUnits="userSpaceOnUse">
<stop stop-color="#FF0000"/>
<stop offset="1" stop-color="#FF8A00"/>
</linearGradient>
<linearGradient id="paint15_linear_44_38" x1="256" y1="84" x2="256" y2="427.011" gradientUnits="userSpaceOnUse">
<stop stop-color="#FF0000"/>
<stop offset="1" stop-color="#FF8A00"/>
</linearGradient>
<linearGradient id="paint16_linear_44_38" x1="256" y1="84" x2="256" y2="427.011" gradientUnits="userSpaceOnUse">
<stop stop-color="#FF0000"/>
<stop offset="1" stop-color="#FF8A00"/>
</linearGradient>
<linearGradient id="paint17_linear_44_38" x1="256" y1="84" x2="256" y2="427.011" gradientUnits="userSpaceOnUse">
<stop stop-color="#FF0000"/>
<stop offset="1" stop-color="#FF8A00"/>
</linearGradient>
<linearGradient id="paint18_linear_44_38" x1="256" y1="84" x2="256" y2="427.011" gradientUnits="userSpaceOnUse">
<stop stop-color="#FF0000"/>
<stop offset="1" stop-color="#FF8A00"/>
</linearGradient>
<linearGradient id="paint19_linear_44_38" x1="256" y1="84" x2="256" y2="427.011" gradientUnits="userSpaceOnUse">
<stop stop-color="#FF0000"/>
<stop offset="1" stop-color="#FF8A00"/>
</linearGradient>
<linearGradient id="paint20_linear_44_38" x1="256" y1="84" x2="256" y2="427.011" gradientUnits="userSpaceOnUse">
<stop stop-color="#FF0000"/>
<stop offset="1" stop-color="#FF8A00"/>
</linearGradient>
<linearGradient id="paint21_linear_44_38" x1="256" y1="84" x2="256" y2="427.011" gradientUnits="userSpaceOnUse">
<stop stop-color="#FF0000"/>
<stop offset="1" stop-color="#FF8A00"/>
</linearGradient>
<linearGradient id="paint22_linear_44_38" x1="256" y1="84" x2="256" y2="427.011" gradientUnits="userSpaceOnUse">
<stop stop-color="#FF0000"/>
<stop offset="1" stop-color="#FF8A00"/>
</linearGradient>
<linearGradient id="paint23_linear_44_38" x1="256" y1="84" x2="256" y2="427.011" gradientUnits="userSpaceOnUse">
<stop stop-color="#FF0000"/>
<stop offset="1" stop-color="#FF8A00"/>
</linearGradient>
<linearGradient id="paint24_linear_44_38" x1="256" y1="84" x2="256" y2="427.011" gradientUnits="userSpaceOnUse">
<stop stop-color="#FF0000"/>
<stop offset="1" stop-color="#FF8A00"/>
</linearGradient>
<linearGradient id="paint25_linear_44_38" x1="256" y1="84" x2="256" y2="427.011" gradientUnits="userSpaceOnUse">
<stop stop-color="#FF0000"/>
<stop offset="1" stop-color="#FF8A00"/>
</linearGradient>
<linearGradient id="paint26_linear_44_38" x1="256" y1="84" x2="256" y2="427.011" gradientUnits="userSpaceOnUse">
<stop stop-color="#FF0000"/>
<stop offset="1" stop-color="#FF8A00"/>
</linearGradient>
<linearGradient id="paint27_linear_44_38" x1="256" y1="84" x2="256" y2="427.011" gradientUnits="userSpaceOnUse">
<stop stop-color="#FF0000"/>
<stop offset="1" stop-color="#FF8A00"/>
</linearGradient>
<linearGradient id="paint28_linear_44_38" x1="256" y1="84" x2="256" y2="427.011" gradientUnits="userSpaceOnUse">
<stop stop-color="#FF0000"/>
<stop offset="1" stop-color="#FF8A00"/>
</linearGradient>
<linearGradient id="paint29_linear_44_38" x1="256" y1="84" x2="256" y2="427.011" gradientUnits="userSpaceOnUse">
<stop stop-color="#FF0000"/>
<stop offset="1" stop-color="#FF8A00"/>
</linearGradient>
<linearGradient id="paint30_linear_44_38" x1="256" y1="84" x2="256" y2="427.011" gradientUnits="userSpaceOnUse">
<stop stop-color="#FF0000"/>
<stop offset="1" stop-color="#FF8A00"/>
</linearGradient>
<linearGradient id="paint31_linear_44_38" x1="256" y1="84" x2="256" y2="427.011" gradientUnits="userSpaceOnUse">
<stop stop-color="#FF0000"/>
<stop offset="1" stop-color="#FF8A00"/>
</linearGradient>
</defs>
</svg>
