<svg width="512" height="512" viewBox="0 0 512 512" fill="none" xmlns="http://www.w3.org/2000/svg">
<path d="M283.6 260.6L291.708 129.717C291.775 128.638 290.32 128.235 289.822 129.194L227.2 249.8L283.6 260.6Z" fill="white"/>
<path d="M283.6 260.6L222.143 383.515C221.658 384.484 220.193 384.098 220.25 383.015L227.2 249.8M283.6 260.6L291.708 129.717C291.775 128.638 290.32 128.235 289.822 129.194L227.2 249.8M283.6 260.6L227.2 249.8" stroke="white" stroke-width="12" stroke-linecap="round"/>
<path d="M309.295 326.701L389.259 364.579C390.198 365.023 391.108 363.921 390.494 363.084L344.702 300.64C344.45 300.296 344.444 299.83 344.686 299.48L357.4 281.115C357.48 281 357.535 280.868 357.561 280.73L361.901 257.585C361.924 257.463 361.924 257.338 361.901 257.216L357.569 234.112C357.538 233.947 357.466 233.793 357.36 233.663L344.754 218.256C344.473 217.913 344.452 217.426 344.701 217.06L389.324 151.52C389.895 150.681 388.998 149.623 388.077 150.05L312.494 185.042C312.14 185.206 311.914 185.56 311.914 185.949V217.315C311.914 217.549 311.996 217.776 312.146 217.955L326.485 235.163C326.578 235.274 326.645 235.405 326.683 235.545L332.418 257.053C332.478 257.277 332.458 257.516 332.361 257.727L316.461 292.417C316.374 292.607 316.23 292.765 316.049 292.869L285.706 310.208C285.528 310.31 285.385 310.464 285.297 310.65L274.56 333.468C274.201 334.231 274.889 335.068 275.707 334.864L308.624 326.635C308.849 326.578 309.086 326.602 309.295 326.701Z" stroke="white" stroke-width="12" stroke-linecap="round"/>
<path d="M193.728 329.71L125.327 360.42C124.408 360.832 123.525 359.783 124.088 358.949L164.454 299.096C164.662 298.787 164.682 298.39 164.505 298.062L154.596 279.66C154.529 279.534 154.489 279.395 154.479 279.252L153.022 257.4V238.498C153.022 238.351 153.055 238.205 153.117 238.072L164.54 213.799C164.695 213.469 164.659 213.08 164.444 212.785L119.886 151.518C119.286 150.693 120.162 149.604 121.096 150.014L201.192 185.144C201.436 185.25 201.712 185.256 201.959 185.159L240.144 170.157C241.02 169.813 241.843 170.76 241.38 171.58L223.83 202.63C223.708 202.846 223.511 203.008 223.276 203.087L206.155 208.794C206.043 208.831 205.939 208.888 205.847 208.961L191.445 220.483C191.332 220.573 191.24 220.687 191.176 220.816L182.484 238.2C182.459 238.25 182.438 238.301 182.422 238.354L176.656 257.094C176.595 257.293 176.597 257.507 176.663 257.704L183.852 279.271C183.895 279.401 183.965 279.521 184.057 279.624L196.902 293.896C197.067 294.079 197.159 294.318 197.159 294.565V311.753C197.159 311.808 197.154 311.863 197.145 311.917L194.304 328.962C194.249 329.292 194.033 329.573 193.728 329.71Z" stroke="white" stroke-width="12" stroke-linecap="round"/>
<path d="M260.65 452.845C110.444 449.984 10.6636 351.84 12.0138 254.624C13.3742 156.674 108.033 57.5924 258.837 59.015C409.377 60.4352 500 166.527 500 255.929C500 345.69 409.053 455.671 260.65 452.845Z" stroke="white" stroke-width="24" stroke-linecap="round"/>
</svg>
